<svg width="22" height="22" viewBox="0 0 22 22" fill="none" xmlns="http://www.w3.org/2000/svg">
<path d="M13.4063 5.84375C13.4063 5.36784 13.2651 4.90261 13.0007 4.50691C12.7363 4.1112 12.3605 3.80279 11.9208 3.62067C11.4811 3.43854 10.9973 3.39089 10.5306 3.48374C10.0638 3.57658 9.63505 3.80575 9.29853 4.14227C8.96201 4.47879 8.73283 4.90755 8.63999 5.37431C8.54714 5.84108 8.59479 6.32489 8.77692 6.76458C8.95904 7.20426 9.26745 7.58007 9.66316 7.84447C10.0589 8.10887 10.5241 8.24999 11 8.24999C11.638 8.24928 12.2496 7.99553 12.7007 7.54443C13.1518 7.09333 13.4055 6.4817 13.4063 5.84375ZM9.96875 5.84375C9.96875 5.63979 10.0292 5.4404 10.1425 5.27082C10.2559 5.10123 10.4169 4.96905 10.6054 4.891C10.7938 4.81295 11.0011 4.79252 11.2012 4.83231C11.4012 4.8721 11.585 4.97032 11.7292 5.11454C11.8734 5.25877 11.9716 5.44252 12.0114 5.64256C12.0512 5.8426 12.0308 6.04995 11.9528 6.23839C11.8747 6.42682 11.7425 6.58788 11.5729 6.7012C11.4033 6.81451 11.204 6.875 11 6.875C10.7266 6.87469 10.4645 6.76594 10.2711 6.57261C10.0778 6.37928 9.96906 6.11716 9.96875 5.84375Z"/>
<path d="M21.3125 17.5312H20.625V14.0938C20.625 13.9114 20.5526 13.7365 20.4236 13.6076C20.2947 13.4787 20.1198 13.4062 19.9375 13.4062H11.6875V11.6875H12.0312C12.1902 11.6875 12.3442 11.6324 12.4671 11.5317C12.59 11.4309 12.6742 11.2907 12.7054 11.1348L12.8637 10.3432L13.5355 10.791C13.6677 10.8791 13.8264 10.9188 13.9846 10.9031C14.1427 10.8874 14.2906 10.8174 14.403 10.7051L15.8614 9.24687C15.9737 9.1345 16.0437 8.98665 16.0594 8.82849C16.0751 8.67033 16.0354 8.51162 15.9473 8.37938L15.4995 7.70765L16.2911 7.54931C16.447 7.51812 16.5872 7.43389 16.688 7.31095C16.7887 7.18801 16.8438 7.03395 16.8438 6.875V4.8125C16.8437 4.65357 16.7887 4.49955 16.6879 4.37664C16.5872 4.25373 16.4469 4.16953 16.2911 4.13836L15.4994 3.98002L15.9472 3.30829C16.0354 3.17605 16.075 3.01734 16.0594 2.85918C16.0437 2.70102 15.9737 2.55318 15.8613 2.4408L14.4031 0.982395C14.2907 0.870016 14.1429 0.80004 13.9848 0.784372C13.8266 0.768704 13.6679 0.808312 13.5357 0.896457L12.8637 1.34432L12.7054 0.552664C12.6742 0.39682 12.59 0.256589 12.4671 0.155829C12.3442 0.0550684 12.1902 2.60689e-06 12.0312 0L9.96875 0C9.80982 2.60689e-06 9.6558 0.0550684 9.53289 0.155829C9.40998 0.256589 9.32578 0.39682 9.29461 0.552664L9.13627 1.34432L8.4645 0.8965C8.33226 0.808355 8.17356 0.768747 8.01541 0.784415C7.85726 0.800083 7.70942 0.870058 7.59705 0.982437L6.13864 2.44062C6.02626 2.553 5.95627 2.70085 5.9406 2.85901C5.92494 3.01717 5.96455 3.17588 6.05271 3.30812L6.50053 3.97985L5.70887 4.13819C5.55301 4.16938 5.41276 4.25361 5.31201 4.37655C5.21125 4.49949 5.15621 4.65355 5.15625 4.8125V6.875C5.15625 7.03393 5.21132 7.18795 5.31208 7.31086C5.41284 7.43376 5.55307 7.51797 5.70891 7.54914L6.50057 7.70748L6.05275 8.37921C5.96459 8.51145 5.92498 8.67016 5.94065 8.82832C5.95632 8.98648 6.0263 9.13433 6.13869 9.2467L7.59688 10.7051C7.70925 10.8175 7.85709 10.8875 8.01524 10.9031C8.17339 10.9188 8.33209 10.8792 8.46433 10.791L9.1361 10.3432L9.29444 11.1349C9.32563 11.2907 9.40986 11.431 9.5328 11.5317C9.65574 11.6325 9.8098 11.6875 9.96875 11.6875H10.3125V13.4062H2.0625C1.88016 13.4062 1.7053 13.4787 1.57636 13.6076C1.44743 13.7365 1.375 13.9114 1.375 14.0938V17.5312H0.6875C0.505164 17.5312 0.330295 17.6037 0.201364 17.7326C0.0724328 17.8615 0 18.0364 0 18.2188L0 20.9688C0 21.1511 0.0724328 21.326 0.201364 21.4549C0.330295 21.5838 0.505164 21.6562 0.6875 21.6562H3.4375C3.61984 21.6562 3.7947 21.5838 3.92364 21.4549C4.05257 21.326 4.125 21.1511 4.125 20.9688V18.2188C4.125 18.0364 4.05257 17.8615 3.92364 17.7326C3.7947 17.6037 3.61984 17.5312 3.4375 17.5312H2.75V14.7812H10.3125V17.5312H9.625C9.44266 17.5312 9.2678 17.6037 9.13886 17.7326C9.00993 17.8615 8.9375 18.0364 8.9375 18.2188V20.9688C8.9375 21.1511 9.00993 21.326 9.13886 21.4549C9.2678 21.5838 9.44266 21.6562 9.625 21.6562H12.375C12.5573 21.6562 12.7322 21.5838 12.8611 21.4549C12.9901 21.326 13.0625 21.1511 13.0625 20.9688V18.2188C13.0625 18.0364 12.9901 17.8615 12.8611 17.7326C12.7322 17.6037 12.5573 17.5312 12.375 17.5312H11.6875V14.7812H19.25V17.5312H18.5625C18.3802 17.5312 18.2053 17.6037 18.0764 17.7326C17.9474 17.8615 17.875 18.0364 17.875 18.2188V20.9688C17.875 21.1511 17.9474 21.326 18.0764 21.4549C18.2053 21.5838 18.3802 21.6562 18.5625 21.6562H21.3125C21.4948 21.6562 21.6697 21.5838 21.7986 21.4549C21.9276 21.326 22 21.1511 22 20.9688V18.2188C22 18.0364 21.9276 17.8615 21.7986 17.7326C21.6697 17.6037 21.4948 17.5312 21.3125 17.5312ZM9.93493 9.11294C9.76552 9.0578 9.60067 8.98953 9.44187 8.90875C9.33309 8.85332 9.21152 8.82785 9.08964 8.83497C8.96777 8.84208 8.84998 8.88152 8.74839 8.94923L8.17077 9.33427L7.50948 8.67298L7.89452 8.09536C7.96224 7.99376 8.00168 7.87597 8.0088 7.75409C8.01591 7.6322 7.99044 7.51062 7.935 7.40184C7.85421 7.24307 7.78595 7.07825 7.73081 6.90886C7.69304 6.79283 7.62507 6.68894 7.53388 6.60786C7.44269 6.52679 7.33157 6.47144 7.21192 6.4475L6.53125 6.31138V5.37612L7.21192 5.24C7.33157 5.21606 7.44269 5.16071 7.53388 5.07964C7.62507 4.99856 7.69304 4.89467 7.73081 4.77864C7.78595 4.60925 7.85421 4.44443 7.935 4.28566C7.99044 4.17688 8.01591 4.0553 8.0088 3.93341C8.00168 3.81153 7.96224 3.69374 7.89452 3.59214L7.50948 3.01452L8.17077 2.35323L8.74844 2.73827C8.85002 2.80598 8.96779 2.84542 9.08966 2.85254C9.21153 2.85967 9.33309 2.83421 9.44187 2.77879C9.60069 2.69802 9.76555 2.62973 9.93498 2.57456C10.051 2.53679 10.1549 2.46881 10.2359 2.37763C10.317 2.28644 10.3724 2.17531 10.3963 2.05567L10.5324 1.375H11.4676L11.6038 2.05567C11.6277 2.17531 11.683 2.28644 11.7641 2.37763C11.8452 2.46881 11.949 2.53679 12.0651 2.57456C12.2345 2.62973 12.3994 2.69802 12.5582 2.77879C12.6669 2.83421 12.7885 2.85967 12.9104 2.85254C13.0323 2.84542 13.15 2.80598 13.2516 2.73827L13.8292 2.35323L14.4905 3.01452L14.1055 3.59219C14.0378 3.69378 13.9983 3.81157 13.9912 3.93346C13.9841 4.05534 14.0096 4.17692 14.065 4.2857C14.1458 4.44447 14.2141 4.6093 14.2692 4.77868C14.307 4.89471 14.3749 4.9986 14.4661 5.07968C14.5573 5.16076 14.6684 5.2161 14.7881 5.24004L15.4688 5.37612V6.31138L14.7881 6.4475C14.6684 6.47144 14.5573 6.52679 14.4661 6.60786C14.3749 6.68894 14.307 6.79283 14.2692 6.90886C14.2141 7.07825 14.1458 7.24307 14.065 7.40184C14.0096 7.51062 13.9841 7.6322 13.9912 7.75409C13.9983 7.87597 14.0378 7.99376 14.1055 8.09536L14.4905 8.67298L13.8292 9.33427L13.2516 8.94923C13.15 8.88152 13.0322 8.84208 12.9103 8.83497C12.7884 8.82785 12.6669 8.85332 12.5581 8.90875C12.3993 8.98953 12.2344 9.0578 12.065 9.11294C11.949 9.15071 11.8451 9.21869 11.7641 9.30987C11.683 9.40106 11.6276 9.51219 11.6037 9.63183L11.4676 10.3125H10.5324L10.3962 9.63183C10.3723 9.51219 10.317 9.40106 10.2359 9.30987C10.1548 9.21869 10.051 9.15071 9.93493 9.11294ZM2.75 20.2812H1.375V18.9062H2.75V20.2812ZM11.6875 20.2812H10.3125V18.9062H11.6875V20.2812ZM20.625 20.2812H19.25V18.9062H20.625V20.2812Z" />
</svg>
