<svg width="22" height="23" viewBox="0 0 22 23" fill="none" xmlns="http://www.w3.org/2000/svg">
<g clip-path="url(#clip0_20_791)">
<path d="M20.802 12.4469V8.51033L18.4223 7.94378C18.315 7.62968 18.1873 7.3219 18.0404 7.02322L19.3228 4.93936L16.5392 2.15578L14.4553 3.43818C14.1567 3.29132 13.8489 3.16364 13.5348 3.0563L12.9683 0.676636H9.03174L8.46514 3.0563C8.15104 3.16364 7.84326 3.29132 7.54463 3.43818L5.46077 2.15578L2.67714 4.93936L3.9595 7.02322C3.81264 7.3219 3.68496 7.62968 3.57761 7.94378L1.198 8.51029V12.4469L3.57766 13.0135C3.685 13.3276 3.81269 13.6353 3.95954 13.934L2.67113 16.0277L4.6012 17.8764C4.39671 18.4892 4.29107 19.1337 4.29107 19.788V22.6766H17.796V19.788C17.796 19.1561 17.6969 18.5334 17.506 17.9394L19.3133 16.0024L18.0405 13.9341C18.1873 13.6354 18.315 13.3276 18.4223 13.0135L20.802 12.4469ZM16.4891 21.3697H5.598V19.788C5.598 18.8816 5.85625 17.999 6.34486 17.2355C7.21955 15.8688 8.71049 15.0529 10.3331 15.0529H11.7539C13.3766 15.0529 14.8675 15.8688 15.7422 17.2355C16.2308 17.999 16.4891 18.8816 16.4891 19.788V21.3697ZM11.0435 13.6915C9.37707 13.6915 8.02126 12.3357 8.02126 10.6692C8.02126 9.00274 9.37707 7.64693 11.0435 7.64693C12.71 7.64693 14.0658 9.00274 14.0658 10.6692C14.0658 12.3357 12.71 13.6915 11.0435 13.6915ZM17.6782 15.8391L16.9183 16.6534C16.8935 16.6125 16.8689 16.5714 16.843 16.531C16.0935 15.3599 14.989 14.5064 13.7175 14.0716C14.7248 13.2782 15.3727 12.048 15.3727 10.6692C15.3727 8.2821 13.4306 6.34 11.0435 6.34C8.65639 6.34 6.71429 8.2821 6.71429 10.6692C6.71429 12.048 7.36218 13.2782 8.36947 14.0716C7.09796 14.5064 5.99352 15.3599 5.24399 16.531C5.22387 16.5625 5.20492 16.5945 5.1854 16.6263L4.3372 15.8139L5.46722 13.9776L4.61248 11.9165L2.50493 11.4146V9.54259L4.61253 9.04077L5.46726 6.97966L4.33119 5.13357L5.65489 3.80987L7.50102 4.94594L9.56213 4.09121L10.064 1.98357H11.936L12.4378 4.09117L14.4989 4.94594L16.345 3.80987L17.6687 5.13357L16.5326 6.97966L17.3874 9.04077L19.495 9.54259V11.4146L17.3874 11.9164L16.5326 13.9775L17.6782 15.8391Z"/>
</g>
<defs>
<clipPath id="clip0_20_791">
<rect width="22" height="22" fill="white" transform="translate(0 0.676636)"/>
</clipPath>
</defs>
</svg>
