<svg width="22" height="22" viewBox="0 0 22 22" fill="none" xmlns="http://www.w3.org/2000/svg">
<path d="M17.9247 0H7.06978C5.86511 0 4.88507 0.925246 4.88507 2.0625V2.75H3.38357C2.56034 2.75 1.89062 3.41971 1.89062 4.24295V20.5071C1.89062 21.3303 2.56034 22 3.38357 22H15.622C16.4452 22 17.1149 21.3303 17.1149 20.5071V19.25H17.9247C19.1293 19.25 20.1094 18.3248 20.1094 17.1875V2.0625C20.1094 0.925246 19.1293 0 17.9247 0ZM15.7399 20.5071C15.7399 20.5721 15.687 20.625 15.622 20.625H3.38357C3.31852 20.625 3.26562 20.5721 3.26562 20.5071V4.24295C3.26562 4.17789 3.31852 4.125 3.38357 4.125H15.622C15.687 4.125 15.7399 4.17789 15.7399 4.24295V20.5071ZM18.7344 17.1875C18.7344 17.5666 18.3711 17.875 17.9247 17.875H17.1149V4.24295C17.1149 3.41971 16.4452 2.75 15.622 2.75H6.26007V2.0625C6.26007 1.68343 6.62333 1.375 7.06978 1.375H17.9247C18.3711 1.375 18.7344 1.68343 18.7344 2.0625V17.1875Z" fill="white"/>
<path d="M12.8906 9.28125H6.35938C5.9797 9.28125 5.67188 8.97342 5.67188 8.59375C5.67188 8.21408 5.9797 7.90625 6.35938 7.90625H12.8906C13.2703 7.90625 13.5781 8.21408 13.5781 8.59375C13.5781 8.97342 13.2703 9.28125 12.8906 9.28125Z" fill="white"/>
<path d="M12.8906 12.0312H6.35938C5.9797 12.0312 5.67188 11.7234 5.67188 11.3438C5.67188 10.9641 5.9797 10.6562 6.35938 10.6562H12.8906C13.2703 10.6562 13.5781 10.9641 13.5781 11.3438C13.5781 11.7234 13.2703 12.0312 12.8906 12.0312Z" fill="white"/>
<path d="M12.8906 14.7812H6.35938C5.9797 14.7812 5.67188 14.4734 5.67188 14.0938C5.67188 13.7141 5.9797 13.4062 6.35938 13.4062H12.8906C13.2703 13.4062 13.5781 13.7141 13.5781 14.0938C13.5781 14.4734 13.2703 14.7812 12.8906 14.7812Z" fill="white"/>
</svg>
