<svg width="23" height="23" viewBox="0 0 23 23" fill="none" xmlns="http://www.w3.org/2000/svg">
<g clip-path="url(#clip0_20_1214)">
<path d="M15.9682 9.6438C14.8484 9.6438 13.9374 10.5548 13.9374 11.6746C13.9374 12.7944 14.8484 13.7054 15.9682 13.7054C17.088 13.7054 17.999 12.7944 17.999 11.6746C17.999 10.5548 17.088 9.6438 15.9682 9.6438ZM15.9682 12.4163C15.5592 12.4163 15.2265 12.0836 15.2265 11.6746C15.2265 11.2656 15.5592 10.9329 15.9682 10.9329C16.3772 10.9329 16.71 11.2656 16.71 11.6746C16.71 12.0836 16.3772 12.4163 15.9682 12.4163Z"/>
<path d="M21.8616 9.94513L20.4951 9.79354L21.3518 8.71824C21.5564 8.46133 21.5352 8.09163 21.3024 7.85986L19.7591 6.32342C19.5263 6.09169 19.1565 6.07206 18.9005 6.27788L17.8469 7.125L17.6978 5.78129C17.6615 5.45481 17.3856 5.20782 17.0572 5.20782H16.6128V1.31915C16.6128 0.9632 16.3242 0.674622 15.9683 0.674622H5.20042C5.02966 0.674536 4.86389 0.743887 4.74444 0.863426L0.62743 4.98043C0.499512 5.10646 0.435059 5.27623 0.435059 5.43943V22.0301C0.435059 22.386 0.723637 22.6746 1.07959 22.6746H15.9683C16.3242 22.6746 16.6128 22.386 16.6128 22.0301V18.1414H17.0571C17.3856 18.1414 17.6615 17.8944 17.6977 17.568L17.8493 16.2015L18.9246 17.0581C19.1815 17.2628 19.5513 17.2415 19.783 17.0087L21.3195 15.4654C21.5512 15.2326 21.5708 14.8628 21.365 14.6068L20.5179 13.5532L21.8616 13.4041C22.1881 13.3679 22.4351 13.0919 22.4351 12.7635V10.5858C22.4351 10.2573 22.1881 9.98135 21.8616 9.94513ZM4.55576 2.87505V4.7949H2.63592L4.55576 2.87505ZM15.3237 21.3856H1.72412V6.08396H5.20029C5.55625 6.08396 5.84482 5.79538 5.84482 5.43943V1.96368H15.3237V5.20782H14.8794C14.5509 5.20782 14.275 5.45485 14.2388 5.78129L14.0872 7.14774L13.0119 6.29111C12.755 6.08645 12.3852 6.10772 12.1535 6.34052L10.6171 7.88388C10.3853 8.11664 10.3657 8.48647 10.5715 8.74243L11.4186 9.79607L10.0749 9.94513C9.74845 9.98135 9.50146 10.2573 9.50146 10.5858V12.7635C9.50146 13.0919 9.74845 13.3679 10.0749 13.4041L11.4414 13.5557L10.5848 14.631C10.3801 14.8879 10.4014 15.2576 10.6341 15.4894L12.1775 17.0258C12.4102 17.2576 12.78 17.2772 13.036 17.0714L14.0897 16.2242L14.2388 17.568C14.275 17.8944 14.5509 18.1414 14.8793 18.1414H15.3237V21.3856ZM21.146 12.1865L19.7768 12.3384C19.5274 12.3661 19.3168 12.5359 19.2369 12.7737C19.1883 12.9185 19.1287 13.0623 19.06 13.2011C18.9487 13.4261 18.9781 13.6952 19.1354 13.8909L19.9989 14.9649L19.2766 15.6904L18.1987 14.8318C18.0025 14.6754 17.7331 14.6472 17.5087 14.7595C17.3655 14.8311 17.217 14.8929 17.0674 14.9433C16.8296 15.0232 16.6598 15.2338 16.6321 15.4832L16.4802 16.8524H15.4564L15.3045 15.4832C15.2769 15.2338 15.107 15.0232 14.8693 14.9433C14.7244 14.8946 14.5806 14.8351 14.4418 14.7664C14.2168 14.655 13.9477 14.6845 13.7521 14.8417L12.6781 15.7052L11.9525 14.9829L12.8112 13.905C12.9676 13.7087 12.9958 13.4394 12.8834 13.2149C12.8118 13.0718 12.75 12.9234 12.6997 12.7737C12.6198 12.5358 12.4092 12.366 12.1599 12.3384L10.7905 12.1865V11.1627L12.1598 11.0108C12.4091 10.9832 12.6198 10.8133 12.6996 10.5755C12.7483 10.4307 12.8078 10.2869 12.8765 10.1481C12.9878 9.92317 12.9584 9.65402 12.8011 9.45838L11.9376 8.38438L12.6599 7.65885L13.7378 8.51749C13.9341 8.6739 14.2034 8.70209 14.4278 8.58977C14.571 8.51809 14.7195 8.45631 14.8692 8.40599C15.107 8.32607 15.2768 8.11543 15.3044 7.86609L15.4563 6.49684H16.4801L16.632 7.86609C16.6597 8.11543 16.8295 8.32607 17.0673 8.40599C17.2121 8.45467 17.3559 8.51418 17.4947 8.58285C17.7197 8.69418 17.9888 8.66479 18.1844 8.50752L19.2584 7.64407L19.984 8.36637L19.1253 9.44424C18.9689 9.64057 18.9408 9.90985 19.0531 10.1343C19.1247 10.2774 19.1865 10.4259 19.2368 10.5756C19.3167 10.8134 19.5274 10.9832 19.7767 11.0109L21.146 11.1627V12.1865Z"/>
<path d="M3.65784 8.66229H7.56786C7.92381 8.66229 8.21239 8.37371 8.21239 8.01776C8.21239 7.66181 7.92381 7.37323 7.56786 7.37323H3.65784C3.30188 7.37323 3.01331 7.66181 3.01331 8.01776C3.01331 8.37371 3.30188 8.66229 3.65784 8.66229Z"/>
<path d="M3.65784 11.2404H7.56786C7.92381 11.2404 8.21239 10.9518 8.21239 10.5959C8.21239 10.2399 7.92381 9.95135 7.56786 9.95135H3.65784C3.30188 9.95135 3.01331 10.2399 3.01331 10.5959C3.01331 10.9518 3.30188 11.2404 3.65784 11.2404Z"/>
<path d="M3.65784 13.8185H7.56786C7.92381 13.8185 8.21239 13.53 8.21239 13.174C8.21239 12.8181 7.92381 12.5295 7.56786 12.5295H3.65784C3.30188 12.5295 3.01331 12.8181 3.01331 13.174C3.01331 13.53 3.30188 13.8185 3.65784 13.8185Z"/>
<path d="M3.65784 16.3967H7.56786C7.92381 16.3967 8.21239 16.1081 8.21239 15.7521C8.21239 15.3962 7.92381 15.1076 7.56786 15.1076H3.65784C3.30188 15.1076 3.01331 15.3962 3.01331 15.7521C3.01331 16.1081 3.30188 16.3967 3.65784 16.3967Z"/>
<path d="M9.7163 17.6857H3.65784C3.30188 17.6857 3.01331 17.9743 3.01331 18.3303C3.01331 18.6862 3.30188 18.9748 3.65784 18.9748H9.7163C10.0723 18.9748 10.3608 18.6862 10.3608 18.3303C10.3608 17.9743 10.0723 17.6857 9.7163 17.6857Z"/>
</g>
<defs>
<clipPath id="clip0_20_1214">
<rect width="22" height="22" fill="white" transform="translate(0.435059 0.674622)"/>
</clipPath>
</defs>
</svg>
