<svg width="23" height="23" viewBox="0 0 23 23" fill="none" xmlns="http://www.w3.org/2000/svg">
<g clip-path="url(#clip0_830_11765)">
<path d="M15.9682 9.6438C14.8484 9.6438 13.9374 10.5548 13.9374 11.6746C13.9374 12.7944 14.8484 13.7054 15.9682 13.7054C17.088 13.7054 17.999 12.7944 17.999 11.6746C17.999 10.5548 17.088 9.6438 15.9682 9.6438ZM15.9682 12.4163C15.5592 12.4163 15.2265 12.0836 15.2265 11.6746C15.2265 11.2656 15.5592 10.9329 15.9682 10.9329C16.3772 10.9329 16.71 11.2656 16.71 11.6746C16.71 12.0836 16.3772 12.4163 15.9682 12.4163Z" fill="white"/>
<path d="M21.8616 9.94507L20.4951 9.79347L21.3518 8.71818C21.5564 8.46127 21.5352 8.09157 21.3024 7.8598L19.7591 6.32336C19.5263 6.09163 19.1565 6.07199 18.9005 6.27781L17.8469 7.12494L17.6978 5.78122C17.6615 5.45475 17.3856 5.20776 17.0572 5.20776H16.6128V1.31909C16.6128 0.963139 16.3242 0.674561 15.9683 0.674561H5.20042C5.02966 0.674475 4.86389 0.743826 4.74444 0.863365L0.62743 4.98037C0.499512 5.1064 0.435059 5.27617 0.435059 5.43937V22.03C0.435059 22.386 0.723637 22.6746 1.07959 22.6746H15.9683C16.3242 22.6746 16.6128 22.386 16.6128 22.03V18.1414H17.0571C17.3856 18.1414 17.6615 17.8943 17.6977 17.5679L17.8493 16.2014L18.9246 17.0581C19.1815 17.2627 19.5513 17.2414 19.783 17.0087L21.3195 15.4653C21.5512 15.2325 21.5708 14.8627 21.365 14.6067L20.5179 13.5531L21.8616 13.4041C22.1881 13.3678 22.4351 13.0919 22.4351 12.7634V10.5857C22.4351 10.2572 22.1881 9.98129 21.8616 9.94507ZM4.55576 2.87499V4.79483H2.63592L4.55576 2.87499ZM15.3237 21.3855H1.72412V6.0839H5.20029C5.55625 6.0839 5.84482 5.79532 5.84482 5.43937V1.96362H15.3237V5.20776H14.8794C14.5509 5.20776 14.275 5.45479 14.2388 5.78122L14.0872 7.14767L13.0119 6.29105C12.755 6.08639 12.3852 6.10766 12.1535 6.34046L10.6171 7.88381C10.3853 8.11658 10.3657 8.48641 10.5715 8.74237L11.4186 9.79601L10.0749 9.94507C9.74845 9.98129 9.50146 10.2572 9.50146 10.5857V12.7634C9.50146 13.0919 9.74845 13.3678 10.0749 13.4041L11.4414 13.5556L10.5848 14.6309C10.3801 14.8878 10.4014 15.2576 10.6341 15.4893L12.1775 17.0258C12.4102 17.2575 12.78 17.2771 13.036 17.0713L14.0897 16.2242L14.2388 17.5679C14.275 17.8944 14.5509 18.1414 14.8793 18.1414H15.3237V21.3855ZM21.146 12.1864L19.7768 12.3383C19.5274 12.366 19.3168 12.5359 19.2369 12.7737C19.1883 12.9185 19.1287 13.0622 19.06 13.2011C18.9487 13.426 18.9781 13.6952 19.1354 13.8908L19.9989 14.9648L19.2766 15.6903L18.1987 14.8317C18.0025 14.6753 17.7331 14.6471 17.5087 14.7594C17.3655 14.8311 17.217 14.8929 17.0674 14.9432C16.8296 15.0231 16.6598 15.2337 16.6321 15.4831L16.4802 16.8523H15.4564L15.3045 15.4831C15.2769 15.2337 15.107 15.0231 14.8693 14.9432C14.7244 14.8945 14.5806 14.835 14.4418 14.7663C14.2168 14.655 13.9477 14.6844 13.7521 14.8417L12.6781 15.7051L11.9525 14.9828L12.8112 13.9049C12.9676 13.7086 12.9958 13.4393 12.8834 13.2149C12.8118 13.0718 12.75 12.9233 12.6997 12.7736C12.6198 12.5358 12.4092 12.366 12.1599 12.3383L10.7905 12.1864V11.1627L12.1598 11.0108C12.4091 10.9831 12.6198 10.8133 12.6996 10.5755C12.7483 10.4307 12.8078 10.2869 12.8765 10.1481C12.9878 9.92311 12.9584 9.65395 12.8011 9.45832L11.9376 8.38431L12.6599 7.65879L13.7378 8.51743C13.9341 8.67384 14.2034 8.70203 14.4278 8.5897C14.571 8.51803 14.7195 8.45624 14.8692 8.40593C15.107 8.32601 15.2768 8.11537 15.3044 7.86603L15.4563 6.49678H16.4801L16.632 7.86603C16.6597 8.11537 16.8295 8.32601 17.0673 8.40593C17.2121 8.45461 17.3559 8.51412 17.4947 8.58279C17.7197 8.69412 17.9888 8.66473 18.1844 8.50746L19.2584 7.64401L19.984 8.36631L19.1253 9.44418C18.9689 9.64051 18.9408 9.90979 19.0531 10.1343C19.1247 10.2773 19.1865 10.4258 19.2368 10.5755C19.3167 10.8133 19.5274 10.9832 19.7767 11.0108L21.146 11.1627V12.1864Z" fill="white"/>
<path d="M3.65784 8.66223H7.56786C7.92381 8.66223 8.21239 8.37365 8.21239 8.0177C8.21239 7.66175 7.92381 7.37317 7.56786 7.37317H3.65784C3.30188 7.37317 3.01331 7.66175 3.01331 8.0177C3.01331 8.37365 3.30188 8.66223 3.65784 8.66223Z" fill="white"/>
<path d="M3.65784 11.2404H7.56786C7.92381 11.2404 8.21239 10.9518 8.21239 10.5958C8.21239 10.2399 7.92381 9.95129 7.56786 9.95129H3.65784C3.30188 9.95129 3.01331 10.2399 3.01331 10.5958C3.01331 10.9518 3.30188 11.2404 3.65784 11.2404Z" fill="white"/>
<path d="M3.65784 13.8185H7.56786C7.92381 13.8185 8.21239 13.5299 8.21239 13.174C8.21239 12.818 7.92381 12.5294 7.56786 12.5294H3.65784C3.30188 12.5294 3.01331 12.818 3.01331 13.174C3.01331 13.5299 3.30188 13.8185 3.65784 13.8185Z" fill="white"/>
<path d="M3.65784 16.3966H7.56786C7.92381 16.3966 8.21239 16.108 8.21239 15.7521C8.21239 15.3961 7.92381 15.1075 7.56786 15.1075H3.65784C3.30188 15.1075 3.01331 15.3961 3.01331 15.7521C3.01331 16.108 3.30188 16.3966 3.65784 16.3966Z" fill="white"/>
<path d="M9.7163 17.6857H3.65784C3.30188 17.6857 3.01331 17.9742 3.01331 18.3302C3.01331 18.6862 3.30188 18.9747 3.65784 18.9747H9.7163C10.0723 18.9747 10.3608 18.6862 10.3608 18.3302C10.3608 17.9742 10.0723 17.6857 9.7163 17.6857Z" fill="white"/>
</g>
<defs>
<clipPath id="clip0_830_11765">
<rect width="22" height="22" fill="white" transform="translate(0.435059 0.674561)"/>
</clipPath>
</defs>
</svg>
