<svg width="22" height="22" viewBox="0 0 22 22" fill="none" xmlns="http://www.w3.org/2000/svg">
<path d="M11 0C4.9 0 0 4.9 0 11C0 14.5 1.7 17.7 4.3 19.7C4.4 19.8 4.4 19.8 4.5 19.9C6.3 21.2 8.6 22 11 22C13.4 22 15.7 21.2 17.5 19.9C17.6 19.9 17.7 19.8 17.7 19.7C20.3 17.7 22 14.5 22 11C22 4.9 17.1 0 11 0ZM11 20.5C9 20.5 7.2 19.9 5.6 18.8C5.8 16.6 7.7 14.8 9.9 14.8H11.9C14.2 14.8 16 16.5 16.2 18.8C14.8 19.8 13 20.5 11 20.5ZM7.2 9.5C7.2 7.4 8.9 5.7 11 5.7C13.1 5.7 14.8 7.4 14.8 9.5C14.8 11.6 13.1 13.3 11 13.3C8.9 13.3 7.2 11.6 7.2 9.5ZM17.7 17.7C17.2 15.9 15.9 14.5 14.2 13.8C15.5 12.8 16.3 11.3 16.3 9.5C16.3 6.5 13.9 4.1 10.9 4.1C7.9 4.1 5.6 6.5 5.6 9.5C5.6 11.2 6.4 12.8 7.7 13.8C6 14.5 4.7 15.9 4.2 17.7C2.6 16 1.5 13.6 1.5 11C1.5 5.8 5.7 1.5 11 1.5C16.3 1.5 20.5 5.7 20.5 11C20.5 13.6 19.4 16 17.7 17.7Z" fill="white"/>
</svg>
