<svg width="22" height="23" viewBox="0 0 22 23" fill="none" xmlns="http://www.w3.org/2000/svg">
<g clip-path="url(#clip0_20_745)">
<path d="M21.6306 10.5512L19.772 8.85052V3.21126C19.772 2.85245 19.4824 2.56151 19.1251 2.56151H14.6514C14.2941 2.56151 14.0044 2.8524 14.0044 3.21126V3.57261L11.7599 1.5187C11.3266 1.12217 10.6733 1.12221 10.2402 1.51865L0.3695 10.5512C0.0224842 10.8688 -0.0921994 11.3582 0.0773553 11.7979C0.246953 12.2375 0.659883 12.5216 1.1294 12.5216H2.70588V21.5715C2.70588 21.9303 2.99554 22.2213 3.35286 22.2213H8.76319C9.12047 22.2213 9.41017 21.9304 9.41017 21.5715V16.0767H12.5899V21.5716C12.5899 21.9304 12.8796 22.2213 13.2369 22.2213H18.647C19.0043 22.2213 19.294 21.9304 19.2939 21.5716V12.5216H20.8708C21.3402 12.5216 21.7532 12.2375 21.9228 11.7979C22.0923 11.3582 21.9777 10.8688 21.6306 10.5512ZM18.647 11.2222C18.2897 11.2222 18 11.513 18 11.8719V20.9218H13.8839V15.427C13.8839 15.0681 13.5942 14.7772 13.2369 14.7772H8.76319C8.4059 14.7772 8.11621 15.0681 8.11621 15.427V20.9218H3.9998V11.8719C3.9998 11.5131 3.71015 11.2222 3.35282 11.2222H1.55746L11.0001 2.58136L14.2157 5.52396C14.4051 5.69725 14.6785 5.74192 14.9128 5.63805C15.1472 5.53405 15.2984 5.30094 15.2984 5.04367V3.861H18.4782V9.13748C18.4782 9.32031 18.5548 9.49461 18.6894 9.61776L20.4427 11.2222H18.647Z"/>
</g>
<defs>
<clipPath id="clip0_20_745">
<rect width="22" height="22" transform="translate(0 0.676636)"/>
</clipPath>
</defs>
</svg>
