<svg width="22" height="22" viewBox="0 0 22 22" fill="none" xmlns="http://www.w3.org/2000/svg">
<g clip-path="url(#clip0_484_3580)">
<path d="M15.4811 8.25068C16.7254 8.25068 17.7378 7.23839 17.7378 5.99406C17.7378 4.74973 16.7255 3.73743 15.4811 3.73743C14.2368 3.73743 13.2245 4.74973 13.2245 5.99406C13.2245 7.23839 14.2368 8.25068 15.4811 8.25068ZM15.4811 5.02554C16.0152 5.02554 16.4497 5.46004 16.4497 5.9941C16.4497 6.52816 16.0152 6.96266 15.4811 6.96266C14.9471 6.96266 14.5126 6.5282 14.5126 5.9941C14.5126 5.46004 14.9471 5.02554 15.4811 5.02554Z"/>
<path d="M17.3165 11.9063V10.4614C17.5751 10.3552 17.8234 10.2269 18.0599 10.0772L19.2381 10.9141L21.3639 7.92172L20.1858 7.0849C20.2682 6.72873 20.3098 6.3635 20.3098 5.99405C20.3098 5.62457 20.2682 5.25938 20.1858 4.90321L21.3639 4.06639L19.2381 1.07388L18.0598 1.91086C17.8234 1.76112 17.5751 1.63281 17.3165 1.52672V0.0818984H13.6458V1.52677C13.3872 1.6329 13.1389 1.7612 12.9025 1.91091L12.6649 1.74212L12.6688 1.74114C12.4098 0.715988 11.4897 0 10.4313 0C9.15885 0 8.1236 1.03525 8.1236 2.30772C8.1236 2.79757 8.27747 3.25192 8.53877 3.62592C6.07348 4.42582 4.28602 6.7442 4.28602 9.47263V14.2591C4.28602 16.2716 2.6487 17.9089 0.636169 17.9089V19.197H6.81456C6.99335 19.8926 7.36976 20.5254 7.9079 21.0187C8.59819 21.6515 9.49435 22 10.4313 22C11.3683 22 12.2644 21.6515 12.9547 21.0188C13.4928 20.5254 13.8693 19.8927 14.048 19.1971H20.2264V17.909C18.2139 17.909 16.5766 16.2717 16.5766 14.2591V11.9063H17.3165V11.9063ZM10.4313 1.28807C10.7713 1.28807 11.0783 1.45552 11.2649 1.72051L10.1514 3.28797C9.72492 3.16598 9.41172 2.77286 9.41172 2.30772C9.41168 1.74552 9.86912 1.28807 10.4313 1.28807ZM5.5741 9.47268C5.5741 6.81411 7.7212 4.64793 10.3724 4.61618L10.7765 4.90325C10.6941 5.25942 10.6525 5.62465 10.6525 5.9941C10.6525 6.3635 10.6941 6.72873 10.7765 7.0849L9.59842 7.92176L10.7997 9.61271H5.5741V9.47268ZM5.5741 10.9007H11.7147L12.9024 10.0772C13.1389 10.2269 13.3871 10.3552 13.6458 10.4614V11.9063H15.2885V13.2502H5.5741V10.9007ZM12.0843 20.0692C11.6322 20.4837 11.0452 20.7119 10.4313 20.7119C9.81747 20.7119 9.23044 20.4837 8.77836 20.0692C8.51054 19.8237 8.30407 19.5256 8.16863 19.1971H12.694C12.5586 19.5256 12.3522 19.8237 12.0843 20.0692ZM16.904 17.909H3.95864C4.88625 17.0638 5.49138 15.8708 5.56606 14.5383H15.2966C15.3712 15.8708 15.9764 17.0638 16.904 17.909ZM16.0284 10.6182H14.9339V9.577C14.1329 9.45476 13.4189 9.06924 12.8812 8.51232L12.0284 9.11814L11.3946 8.22589L12.2483 7.61939C12.0039 7.13195 11.8655 6.58217 11.8655 5.99977C11.8655 5.41402 12.0056 4.86127 12.2526 4.37181L11.3946 3.76221L12.0284 2.86997L12.8877 3.48047C13.4246 2.9272 14.1361 2.54431 14.9339 2.42258V1.36997H16.0283V2.42176C16.8274 2.54225 17.5403 2.9245 18.0783 3.47776L18.9339 2.87001L19.5678 3.76226L18.7143 4.36855C18.9624 4.85882 19.1031 5.41273 19.1031 5.99981C19.1031 6.58354 18.9641 7.13449 18.7186 7.6227L19.5678 8.22589L18.9339 9.11814L18.0848 8.51499C17.5461 9.07191 16.8307 9.45682 16.0283 9.57782V10.6182H16.0284Z"/>
</g>
<defs>
<clipPath id="clip0_484_3580">
<rect width="22" height="22" fill="white"/>
</clipPath>
</defs>
</svg>
