<svg width="22" height="22" viewBox="0 0 22 22" fill="none" xmlns="http://www.w3.org/2000/svg">
<g clip-path="url(#clip0_777_5661)">
<path fill-rule="evenodd" clip-rule="evenodd" d="M3.38463 1.69229H18.6154V20.3077H3.38463V1.69229ZM1.69232 1.69229C1.69232 0.757656 2.44999 -1.52588e-05 3.38463 -1.52588e-05H18.6154C19.5501 -1.52588e-05 20.3077 0.757657 20.3077 1.69229V20.3077C20.3077 21.2423 19.5501 22 18.6154 22H3.38463C2.44999 22 1.69232 21.2423 1.69232 20.3077V1.69229ZM5.92309 12.6923C5.45578 12.6923 5.07694 13.0711 5.07694 13.5384C5.07694 14.0058 5.45578 14.3846 5.92309 14.3846H14.3846C14.852 14.3846 15.2308 14.0058 15.2308 13.5384C15.2308 13.0711 14.852 12.6923 14.3846 12.6923H5.92309ZM5.07694 16.9231C5.07694 16.4557 5.45578 16.0769 5.92309 16.0769H10.1539C10.6212 16.0769 11 16.4557 11 16.9231C11 17.3904 10.6212 17.7692 10.1539 17.7692H5.92309C5.45578 17.7692 5.07694 17.3904 5.07694 16.9231ZM14.9829 4.82908C15.3134 4.49863 15.3134 3.96288 14.9829 3.63243C14.6525 3.30199 14.1167 3.30199 13.7863 3.63243L9.30771 8.11104L8.21372 7.01705C7.88327 6.68661 7.34752 6.68661 7.01707 7.01705C6.68663 7.34749 6.68663 7.88325 7.01707 8.21369L8.70938 9.90599C9.03983 10.2364 9.57558 10.2364 9.90603 9.90599L14.9829 4.82908Z" fill="white"/>
</g>
<defs>
<clipPath id="clip0_777_5661">
<rect width="22" height="22" fill="white"/>
</clipPath>
</defs>
</svg>
