<svg width="22" height="22" viewBox="0 0 22 22" fill="none" xmlns="http://www.w3.org/2000/svg">
<path d="M1.4 11C1.4 5.7 5.7 1.4 11 1.4C13.8 1.4 16.3 2.6 18.1 4.5H16.4C16 4.5 15.7 4.8 15.7 5.2C15.7 5.6 16 5.9 16.4 5.9H19.5C19.9 5.9 20.2 5.6 20.2 5.2V2.1C20.2 1.7 19.9 1.4 19.5 1.4C19.1 1.4 18.8 1.7 18.8 2.1V3.3C16.8 1.3 14 0 11 0C4.9 0 0 4.9 0 11C0 17.1 4.9 22 11 22C17.1 22 22 17.1 22 11C22 10.6 21.7 10.3 21.3 10.3C20.9 10.3 20.6 10.6 20.6 11C20.6 16.3 16.3 20.6 11 20.6C5.7 20.6 1.4 16.3 1.4 11Z"/>
<path d="M5.50002 7.6C4.40002 7.6 3.40002 8.5 3.40002 9.7V12.5C3.40002 13.6 4.30002 14.6 5.50002 14.6H11C11.4 14.6 11.7 14.3 11.7 13.9C11.7 13.5 11.4 13.2 11 13.2H5.50002C5.10002 13.2 4.80002 12.9 4.80002 12.5V9.6C4.80002 9.2 5.10002 8.9 5.50002 8.9H16.5C16.9 8.9 17.2 9.2 17.2 9.6V13.7C17.2 14.1 17.5 14.4 17.9 14.4C18.3 14.4 18.6 14.1 18.6 13.7V9.6C18.6 8.5 17.7 7.5 16.5 7.5H5.50002V7.6Z"/>
<path d="M8.20002 11C8.20002 11.8 7.60002 12.4 6.80002 12.4C6.00002 12.4 5.40002 11.8 5.40002 11C5.40002 10.2 6.00002 9.59998 6.80002 9.59998C7.60002 9.59998 8.20002 10.2 8.20002 11Z"/>
<path d="M11 12.4C11.8 12.4 12.4 11.8 12.4 11C12.4 10.2 11.8 9.59998 11 9.59998C10.2 9.59998 9.59998 10.2 9.59998 11C9.59998 11.8 10.2 12.4 11 12.4Z"/>
<path d="M16.5 11C16.5 11.8 15.9 12.4 15.1 12.4C14.3 12.4 13.7 11.8 13.7 11C13.7 10.2 14.3 9.59998 15.1 9.59998C15.9 9.59998 16.5 10.2 16.5 11Z"/>
<path d="M16.3 14.9C16.6 14.6 16.6 14.2 16.4 13.9C16.1 13.6 15.7 13.6 15.4 13.8L13.6 15.4L12.8 15C12.5 14.7 12.1 14.8 11.8 15.1C11.5 15.4 11.6 15.8 11.9 16.1L13 17.1C13.3 17.3 13.7 17.3 13.9 17.1L16.3 14.9Z"/>
</svg>
