<svg width="23" height="23" viewBox="0 0 23 23" fill="none" xmlns="http://www.w3.org/2000/svg">
<path d="M6.40148 20.9579H3.35899C2.99212 20.9579 2.77079 20.7531 2.67153 20.6311C2.50017 20.4203 2.43379 20.1459 2.48952 19.8783C3.38193 15.5917 7.1649 12.4612 11.5321 12.3596C11.6048 12.3623 11.6777 12.3641 11.7511 12.3641C11.8251 12.3641 11.8986 12.3623 11.972 12.3595C13.0399 12.3839 14.083 12.5847 15.0759 12.9575C15.5202 13.1245 16.0157 12.8994 16.1825 12.4551C16.3494 12.0108 16.1244 11.5153 15.6801 11.3485C15.5378 11.295 15.3946 11.245 15.2506 11.1976C16.6729 10.1307 17.5948 8.43116 17.5948 6.52039C17.5948 3.29816 14.9734 0.676636 11.7511 0.676636C8.52882 0.676636 5.90734 3.29816 5.90734 6.52039C5.90734 8.43288 6.83082 10.1337 8.25528 11.2005C6.95027 11.6301 5.72567 12.2981 4.65394 13.1797C2.68889 14.796 1.32261 17.0506 0.806861 19.528C0.645212 20.3043 0.83883 21.1016 1.33808 21.7155C1.8348 22.3263 2.57142 22.6766 3.35899 22.6766H6.40148C6.87611 22.6766 7.26085 22.2919 7.26085 21.8173C7.26085 21.3426 6.87611 20.9579 6.40148 20.9579ZM7.62609 6.52039C7.62609 4.24583 9.47654 2.39539 11.7511 2.39539C14.0256 2.39539 15.8761 4.24583 15.8761 6.52039C15.8761 8.72756 14.1335 10.5353 11.9519 10.6404C11.885 10.6392 11.8181 10.6382 11.7511 10.6382C11.6839 10.6382 11.6167 10.6392 11.5496 10.6404C9.3683 10.535 7.62609 8.72735 7.62609 6.52039Z"/>
<path d="M22.093 15.484C21.7251 14.6611 20.8965 14.128 19.9799 14.1259H17.2999C17.298 14.1259 17.2962 14.1259 17.2942 14.1259C16.3274 14.1259 15.4839 14.6956 15.1445 15.5785C15.0993 15.696 15.0441 15.844 14.9865 16.0165H9.35992C9.12759 16.0165 8.90518 16.1105 8.74332 16.2772L7.26709 17.7978C6.94194 18.1327 6.94357 18.6659 7.27074 18.9988L8.77464 20.529C8.93621 20.6934 9.15707 20.786 9.38755 20.786H12.1805C12.6552 20.786 13.0399 20.4012 13.0399 19.9266C13.0399 19.452 12.6552 19.0672 12.1805 19.0672H9.74789L9.08496 18.3927L9.72335 17.7352H15.6312C16.0271 17.7352 16.3717 17.4647 16.4659 17.0802C16.5354 16.7963 16.6226 16.5234 16.7488 16.1952C16.832 15.9788 17.0409 15.8446 17.2963 15.8446C17.2968 15.8446 17.2974 15.8446 17.2979 15.8446H19.9779C20.221 15.8452 20.4301 15.9758 20.5238 16.1854C20.7545 16.7016 21.03 17.5006 21.0321 18.3762C21.0341 19.2583 20.759 20.0757 20.5277 20.6061C20.4344 20.82 20.2235 20.9579 19.988 20.9579C19.9875 20.9579 19.987 20.9579 19.9866 20.9579H17.2742C17.0364 20.9573 16.8137 20.8044 16.72 20.5773C16.6195 20.3336 16.5324 20.0554 16.4538 19.7266C16.3433 19.265 15.8794 18.9804 15.418 19.0909C14.9564 19.2013 14.6718 19.6651 14.7822 20.1267C14.882 20.5434 14.9961 20.9052 15.1312 21.2326C15.4921 22.1076 16.3317 22.6744 17.2722 22.6766H19.9846C19.9864 22.6766 19.9882 22.6766 19.99 22.6766C20.9074 22.6765 21.7366 22.1339 22.1032 21.293C22.4002 20.6119 22.7536 19.5522 22.7508 18.3722C22.7481 17.1953 22.3916 16.152 22.093 15.484Z"/>
<path d="M19.2704 19.2391C19.745 19.2391 20.1298 18.8544 20.1298 18.3798C20.1298 17.9051 19.745 17.5204 19.2704 17.5204C18.7958 17.5204 18.411 17.9051 18.411 18.3798C18.411 18.8544 18.7958 19.2391 19.2704 19.2391Z"/>
</svg>
