<svg width="22" height="23" viewBox="0 0 22 23" fill="none" xmlns="http://www.w3.org/2000/svg">
<g clip-path="url(#clip0_20_1199)">
<path d="M20.0664 10.6306H19.4219V9.34149C19.4219 8.98554 19.1333 8.69696 18.7773 8.69696H13.8646V1.52118C13.8646 1.16523 13.576 0.876648 13.2201 0.876648H0.644531C0.288578 0.876648 0 1.16523 0 1.52118V15.7868C0 16.1428 0.288578 16.4313 0.644531 16.4313H13.2201C13.576 16.4313 13.8646 16.1428 13.8646 15.7868V13.8532H18.7773C19.1333 13.8532 19.4219 13.5646 19.4219 13.2087V11.9196H20.0664C20.4218 11.9196 20.7109 12.2087 20.7109 12.5641V14.4977C20.7109 14.8532 20.4218 15.1423 20.0664 15.1423H16.1992C15.133 15.1423 14.2656 16.0096 14.2656 17.0759V17.7204H13.6211C13.2651 17.7204 12.9766 18.009 12.9766 18.3649V22.2321C12.9766 22.5881 13.2651 22.8766 13.6211 22.8766H16.1992C16.5552 22.8766 16.8438 22.5881 16.8438 22.2321V18.3649C16.8438 18.009 16.5552 17.7204 16.1992 17.7204H15.5547V17.0759C15.5547 16.7204 15.8438 16.4313 16.1992 16.4313H20.0664C21.1326 16.4313 22 15.564 22 14.4977V12.5641C22 11.4979 21.1326 10.6306 20.0664 10.6306ZM12.5755 3.45477H11.2865V2.16571H12.5755V3.45477ZM9.99741 2.16571V3.45477H1.28906V2.16571H9.99741ZM12.5755 15.1423H1.28906V4.74384H12.5755V8.69696H11.043C10.687 8.69696 10.3984 8.98554 10.3984 9.34149V13.2087C10.3984 13.5646 10.687 13.8532 11.043 13.8532H12.5755V15.1423ZM18.1328 12.5641H11.6875V9.98602H18.1328V12.5641ZM15.5547 21.5876H14.2656V19.0095H15.5547V21.5876Z"/>
<path d="M8.46351 6.7204H3.22266C2.8667 6.7204 2.57812 7.00898 2.57812 7.36493C2.57812 7.72088 2.8667 8.00946 3.22266 8.00946H8.46351C8.81946 8.00946 9.10804 7.72088 9.10804 7.36493C9.10804 7.00898 8.81946 6.7204 8.46351 6.7204Z"/>
<path d="M8.46351 9.29852H3.22266C2.8667 9.29852 2.57812 9.5871 2.57812 9.94305C2.57812 10.299 2.8667 10.5876 3.22266 10.5876H8.46351C8.81946 10.5876 9.10804 10.299 9.10804 9.94305C9.10804 9.5871 8.81946 9.29852 8.46351 9.29852Z"/>
<path d="M8.46351 11.8766H3.22266C2.8667 11.8766 2.57812 12.1652 2.57812 12.5212C2.57812 12.8771 2.8667 13.1657 3.22266 13.1657H8.46351C8.81946 13.1657 9.10804 12.8771 9.10804 12.5212C9.10804 12.1652 8.81946 11.8766 8.46351 11.8766Z"/>
</g>
<defs>
<clipPath id="clip0_20_1199">
<rect width="22" height="22" fill="white" transform="translate(0 0.876648)"/>
</clipPath>
</defs>
</svg>
